HIERARCHY
ROOT Pelvis
{
	OFFSET 0.000000 0.000000 0.000000
	CHANNELS 6 Xposition Yposition Zposition Xrotation Yrotation Zrotation
	JOINT LeftUpLeg_virtual
	{
		OFFSET 0.000000 0.000000 0.000000
		CHANNELS 3 Xrotation Yrotation Zrotation
		JOINT LeftUpLeg
		{
			OFFSET 18.735201 -5.666702 -4.541200
			CHANNELS 3 Xrotation Yrotation Zrotation
			JOINT LeftLeg
			{
				OFFSET -0.021200 -31.938179 0.493100
				CHANNELS 3 Xrotation Yrotation Zrotation
				JOINT LeftFoot
				{
					OFFSET 0.021200 -31.938179 -4.336299
					CHANNELS 3 Xrotation Yrotation Zrotation
					JOINT LeftToeBase
					{
						OFFSET 0.943001 -26.722000 15.023500
						CHANNELS 3 Xrotation Yrotation Zrotation
						End Site
						{
							OFFSET 0 0 0
						}
					}
				}
			}
		}
	}
	JOINT RightUpLeg_virtual
	{
		OFFSET 0.000000 0.000000 0.000000
		CHANNELS 3 Xrotation Yrotation Zrotation
		JOINT RightUpLeg
		{
			OFFSET -18.735201 -5.666702 -4.541200
			CHANNELS 3 Xrotation Yrotation Zrotation
			JOINT RightLeg
			{
				OFFSET 0.018946 -31.938133 0.493100
				CHANNELS 3 Xrotation Yrotation Zrotation
				JOINT RightFoot
				{
					OFFSET -0.018946 -31.938126 -4.336299
					CHANNELS 3 Xrotation Yrotation Zrotation
					JOINT RightToeBase
					{
						OFFSET -0.943001 -26.722004 15.023500
						CHANNELS 3 Xrotation Yrotation Zrotation
						End Site
						{
							OFFSET 0 0 0
						}
					}
				}
			}
		}
	}
	JOINT Hips_virtual
	{
		OFFSET 0.000000 0.000000 0.000000
		CHANNELS 3 Xrotation Yrotation Zrotation
		JOINT Hips
		{
			OFFSET -0.000000 -0.000000 -0.000000
			CHANNELS 3 Xrotation Yrotation Zrotation
			JOINT Spine
			{
				OFFSET 0.000000 10.199997 -0.299500
				CHANNELS 3 Xrotation Yrotation Zrotation
				JOINT Spine1
				{
					OFFSET 0.000000 11.900002 -1.516600
					CHANNELS 3 Xrotation Yrotation Zrotation
					JOINT Spine2
					{
						OFFSET 0.000000 13.600006 -2.842500
						CHANNELS 3 Xrotation Yrotation Zrotation
						JOINT Neck_virtual
						{
							OFFSET 0.000000 0.000000 0.000000
							CHANNELS 3 Xrotation Yrotation Zrotation
							JOINT Neck
							{
								OFFSET 0.000000 9.624100 -2.890100
								CHANNELS 3 Xrotation Yrotation Zrotation
								JOINT Head
								{
									OFFSET 0.000000 14.068802 -1.351900
									CHANNELS 3 Xrotation Yrotation Zrotation
									End Site
									{
										OFFSET 0 0 0
									}
								}
							}
						}
						JOINT LeftShoulder_virtual
						{
							OFFSET 0.000000 0.000000 0.000000
							CHANNELS 3 Xrotation Yrotation Zrotation
							JOINT LeftShoulder
							{
								OFFSET 15.263000 10.923401 -0.547700
								CHANNELS 3 Xrotation Yrotation Zrotation
								JOINT LeftArm
								{
									OFFSET 25.438599 -2.830597 -13.032500
									CHANNELS 3 Xrotation Yrotation Zrotation
									JOINT LeftForeArm
									{
										OFFSET 29.960503 0.000000 0.000000
										CHANNELS 3 Xrotation Yrotation Zrotation
										JOINT LeftHand
										{
											OFFSET 27.849251 0.000000 0.000000
											CHANNELS 3 Xrotation Yrotation Zrotation
											End Site
											{
												OFFSET 0 0 0
											}
										}
									}
								}
							}
						}
						JOINT RightShoulder_virtual
						{
							OFFSET 0.000000 0.000000 0.000000
							CHANNELS 3 Xrotation Yrotation Zrotation
							JOINT RightShoulder
							{
								OFFSET -15.263000 10.923401 -0.547700
								CHANNELS 3 Xrotation Yrotation Zrotation
								JOINT RightArm
								{
									OFFSET -25.438599 -2.830597 -13.032500
									CHANNELS 3 Xrotation Yrotation Zrotation
									JOINT RightForeArm
									{
										OFFSET -29.960503 0.000000 0.000000
										CHANNELS 3 Xrotation Yrotation Zrotation
										JOINT RightHand
										{
											OFFSET -27.849251 0.000000 0.000000
											CHANNELS 3 Xrotation Yrotation Zrotation
											End Site
											{
												OFFSET 0 0 0
											}
										}
									}
								}
							}
						}
					}
				}
			}
		}
	}
}
MOTION
Frames: 7
Frame Time: 0.03333333
-6.200777 88.836769 4.962564 0.000000 0.000000 0.000000 14.918612 -20.015593 5.920144 -21.765518 5.990339 19.114105 43.423163 -6.500578 -2.167947 -8.452283 -5.043982 -13.690429 0.000000 0.000000 0.000000 1.519874 -10.562933 2.487815 -29.925699 -7.532142 -13.473451 32.009101 1.115063 1.137068 -21.960163 -4.033211 12.586028 0.000000 0.000000 0.000000 7.848511 15.060200 1.584133 -16.165717 7.650995 4.122631 11.759659 2.328026 -0.660660 8.815577 1.379261 -1.180093 0.000000 0.000000 0.000000 1.478365 -1.269673 -2.323487 -0.938174 -1.889049 0.982767 0.000000 0.000000 0.000000 8.242128 0.526311 -4.861012 -1.576100 -15.118569 -4.154656 24.738373 -26.593343 -37.694407 23.453019 -44.583121 1.482656 0.000000 0.000000 0.000000 6.607427 -1.149969 -2.023063 0.649147 -2.325299 -16.335666 -62.519576 3.032430 56.645641 -85.718416 54.424607 90.399896 0.000000 0.000000 0.000000 
-6.351905 88.857574 4.815158 0.000000 0.000000 0.000000 15.047076 -20.426237 5.905273 -21.507251 5.915649 18.953666 43.491619 -6.653675 -2.200815 -8.421873 -5.170390 -13.870459 0.000000 0.000000 0.000000 1.622086 -10.962917 2.456429 -29.808687 -7.644939 -13.546768 31.483190 0.860336 1.290579 -22.371673 -4.351130 12.597298 0.000000 0.000000 0.000000 7.304565 14.116676 1.808434 -15.995973 9.137646 4.489544 11.399675 1.638266 -0.824513 8.644626 1.026519 -1.314503 0.000000 0.000000 0.000000 1.295912 -1.610532 -2.905980 -1.095155 -1.816737 0.704505 0.000000 0.000000 0.000000 8.161172 0.045129 -4.936024 -1.566791 -15.206520 -4.207328 24.750959 -26.036037 -37.521702 23.233384 -44.091740 1.529728 0.000000 0.000000 0.000000 6.387047 -1.834794 -1.690161 0.251384 -4.943168 -14.852277 -60.985591 -4.113463 57.013539 -83.883363 50.780718 89.551368 0.000000 0.000000 0.000000 
-6.406775 88.870117 4.655338 0.000000 0.000000 0.000000 15.144179 -20.796343 5.843415 -21.301144 5.859166 18.761806 43.541414 -6.765301 -2.255974 -8.400571 -5.245246 -14.051957 0.000000 0.000000 0.000000 1.765371 -11.277038 2.415707 -29.625652 -7.739686 -13.622855 30.959198 0.600232 1.399306 -22.763974 -4.645687 12.548648 0.000000 0.000000 0.000000 6.770298 13.158231 1.975800 -15.720459 10.432751 4.702981 11.083834 0.961429 -1.014001 8.499706 0.681501 -1.455980 0.000000 0.000000 0.000000 1.108139 -1.922275 -3.301313 -1.233973 -1.745720 0.528004 0.000000 0.000000 0.000000 8.079158 -0.415810 -4.983565 -1.524845 -15.345094 -4.153997 24.672494 -25.623303 -37.351829 23.033582 -43.736768 1.585699 0.000000 0.000000 0.000000 6.243137 -2.469638 -1.305129 0.037101 -7.366064 -13.213825 -59.116517 -10.601825 58.070781 -82.886156 47.108918 89.948872 0.000000 0.000000 0.000000 
-6.371945 88.870056 4.479873 0.000000 0.000000 0.000000 15.202319 -21.091307 5.744875 -21.155811 5.824289 18.558565 43.578232 -6.825838 -2.331508 -8.380371 -5.261325 -14.225299 0.000000 0.000000 0.000000 1.942739 -11.454966 2.371114 -29.379936 -7.803807 -13.689275 30.491583 0.351273 1.451954 -23.094948 -4.894796 12.438203 0.000000 0.000000 0.000000 6.266325 12.187000 2.086131 -15.294259 11.492020 4.761927 10.824910 0.318312 -1.225295 8.387646 0.355442 -1.602040 0.000000 0.000000 0.000000 0.923881 -2.191347 -3.499682 -1.352069 -1.672245 0.456392 0.000000 0.000000 0.000000 7.997067 -0.844471 -5.001063 -1.453187 -15.514923 -4.001824 24.548702 -25.365197 -37.223332 22.872692 -43.518994 1.636817 0.000000 0.000000 0.000000 6.171214 -3.026222 -0.892361 0.004637 -9.487397 -11.498871 -57.022548 -16.209086 59.683142 -82.591296 43.606052 91.326883 0.000000 0.000000 0.000000 
-6.265697 88.860275 4.299269 0.000000 0.000000 0.000000 15.218370 -21.286980 5.622528 -21.074713 5.812231 18.363722 43.607261 -6.829665 -2.421361 -8.354436 -5.217289 -14.377649 0.000000 0.000000 0.000000 2.145194 -11.464870 2.327278 -29.078888 -7.828959 -13.735688 30.126933 0.128763 1.445996 -23.328426 -5.082949 12.273876 0.000000 0.000000 0.000000 5.812005 11.212331 2.143802 -14.680418 12.299789 4.685874 10.630195 -0.268512 -1.449976 8.311689 0.060400 -1.747908 0.000000 0.000000 0.000000 0.751666 -2.404628 -3.524543 -1.448066 -1.591339 0.474645 0.000000 0.000000 0.000000 7.917339 -1.226120 -4.988781 -1.354933 -15.677171 -3.766689 24.466281 -25.253581 -37.162851 22.783593 -43.413803 1.674106 0.000000 0.000000 0.000000 6.159097 -3.479655 -0.479464 0.129659 -11.211189 -9.799570 -54.889545 -20.802144 61.598669 -82.828932 40.468102 93.318703 0.000000 0.000000 0.000000 
-6.112751 88.850334 4.134165 0.000000 0.000000 0.000000 15.193976 -21.374179 5.490149 -21.056187 5.821459 18.193877 43.632970 -6.776417 -2.516688 -8.318257 -5.117923 -14.495734 0.000000 0.000000 0.000000 2.362590 -11.298725 2.288006 -28.733967 -7.812422 -13.754994 29.899092 -0.055900 1.387383 -23.438395 -5.203142 12.071167 0.000000 0.000000 0.000000 5.423239 10.247130 2.157361 -13.854931 12.860526 4.510811 10.501007 -0.777978 -1.674136 8.271228 -0.192585 -1.886060 0.000000 0.000000 0.000000 0.599802 -2.552573 -3.423412 -1.521297 -1.498790 0.554594 0.000000 0.000000 0.000000 7.842452 -1.545941 -4.949372 -1.235050 -15.783541 -3.472703 24.522097 -25.262276 -37.181726 22.799895 -43.379255 1.693956 0.000000 0.000000 0.000000 6.190333 -3.813240 -0.091769 0.370716 -12.472869 -8.202779 -52.932340 -24.363876 63.520158 -83.435255 37.857727 95.542530 0.000000 0.000000 0.000000 
-5.937768 88.853889 4.007261 0.000000 0.000000 0.000000 15.134567 -21.359270 5.360384 -21.094310 5.847840 18.060181 43.658730 -6.671065 -2.607614 -8.270222 -4.973159 -14.568420 0.000000 0.000000 0.000000 2.584417 -10.973047 2.256106 -28.360347 -7.757298 -13.744204 29.825356 -0.196995 1.288480 -23.412150 -5.257079 11.849577 0.000000 0.000000 0.000000 5.109728 9.303244 2.137967 -12.814350 13.188438 4.278874 10.432988 -1.194099 -1.879870 8.262085 -0.395488 -2.007041 0.000000 0.000000 0.000000 0.475373 -2.631864 -3.253570 -1.571926 -1.392946 0.662781 0.000000 0.000000 0.000000 7.772929 -1.792584 -4.886906 -1.102131 -15.790340 -3.149834 24.786748 -25.354040 -37.276280 22.942045 -43.371882 1.697887 0.000000 0.000000 0.000000 6.247897 -4.021543 0.251775 0.679502 -13.252296 -6.774276 -51.330087 -26.981182 65.192380 -84.274494 35.870234 97.681247 0.000000 0.000000 0.000000 
